<?xml version="1.0" standalone="no"?>
<!DOCTYPE svg PUBLIC "-//W3C//DTD SVG 20010904//EN"
 "http://www.w3.org/TR/2001/REC-SVG-20010904/DTD/svg10.dtd">
<svg version="1.0" xmlns="http://www.w3.org/2000/svg"
 width="295.000000pt" height="319.000000pt" viewBox="0 0 295.000000 319.000000"
 preserveAspectRatio="xMidYMid meet">
<metadata>
Created by potrace 1.16, written by Peter Selinger 2001-2019
</metadata>
<g transform="translate(0.000000,319.000000) scale(0.100000,-0.100000)"
fill="#000000" stroke="none">
<path d="M1381 3050 c-18 -4 -45 -17 -60 -27 -14 -11 -57 -30 -94 -42 -75 -25
-147 -83 -147 -119 0 -11 -16 -40 -36 -64 -20 -23 -46 -63 -57 -88 -11 -25
-24 -53 -28 -62 -5 -10 -9 -27 -9 -37 0 -11 -9 -43 -20 -71 -16 -41 -20 -74
-20 -173 0 -67 5 -149 11 -182 15 -86 17 -98 18 -119 2 -41 10 -6 25 104 9 72
25 139 42 180 16 39 30 98 35 148 10 93 22 123 71 168 46 44 83 61 162 74 64
12 69 11 122 -15 48 -24 64 -27 111 -21 50 6 56 4 82 -21 31 -32 48 -111 31
-144 -8 -14 -5 -27 16 -58 34 -53 29 -72 -26 -91 -78 -27 -117 -110 -127 -269
-3 -48 0 -82 8 -97 15 -30 5 -79 -25 -119 -38 -49 -37 -67 7 -87 50 -24 47
-43 -8 -57 -25 -6 -45 -13 -45 -16 0 -11 47 -28 72 -27 15 1 30 -3 33 -8 5 -8
11 -8 20 0 10 9 16 7 24 -7 12 -23 -2 -48 -22 -40 -9 3 -18 -1 -21 -9 -4 -10
-17 -15 -33 -14 -16 1 -44 1 -63 1 -34 -2 -34 -2 -12 -14 12 -7 20 -16 16 -19
-3 -4 19 -9 50 -13 47 -6 61 -13 87 -42 16 -19 33 -32 36 -29 3 3 12 1 20 -5
9 -9 13 -8 13 0 0 16 17 13 24 -4 7 -20 -58 -93 -90 -101 -12 -3 -25 -12 -27
-19 -3 -7 -33 -21 -66 -31 -34 -10 -61 -23 -61 -28 0 -6 -4 -6 -8 1 -6 9 -17
10 -40 4 -18 -5 -32 -6 -32 -2 0 4 -14 8 -30 8 -17 0 -27 -4 -23 -7 12 -11
103 -39 138 -42 29 -3 30 -5 30 -53 1 -28 5 -56 9 -64 5 -7 12 -29 17 -48 6
-30 4 -39 -17 -60 -34 -34 -68 -26 -153 34 -152 108 -241 228 -241 326 0 29
-4 46 -10 42 -21 -13 -10 -88 22 -154 25 -52 57 -92 152 -187 125 -125 173
-159 210 -150 25 6 258 216 303 272 41 52 91 155 85 174 -11 35 16 -9 41 -66
20 -44 27 -78 27 -122 0 -34 5 -64 10 -67 6 -4 10 11 10 38 0 27 10 63 25 93
14 27 25 57 25 67 0 10 7 20 15 24 20 7 344 -97 445 -144 41 -19 120 -60 175
-93 55 -32 126 -68 157 -80 32 -12 60 -26 63 -31 12 -19 25 -8 22 19 -5 40 -8
44 -79 78 -99 50 -145 69 -263 109 -60 21 -112 42 -115 46 -3 4 -12 9 -20 11
-18 4 -38 29 -70 88 -13 25 -30 50 -38 55 -18 14 -32 131 -25 218 5 56 11 76
30 97 19 20 23 32 18 58 -5 28 -3 34 15 39 19 5 20 12 19 97 0 50 1 109 4 130
3 22 2 34 -3 26 -12 -20 -30 -2 -30 31 0 23 -6 32 -27 40 -20 7 -24 12 -14 18
8 5 10 14 7 20 -4 6 -12 8 -18 5 -7 -5 -9 0 -6 14 7 24 -16 50 -27 32 -10 -16
-25 -1 -25 26 0 17 -6 24 -19 24 -10 0 -24 7 -31 15 -14 17 -50 17 -62 0 -4
-5 -8 1 -8 15 0 18 -3 21 -9 11 -11 -17 -15 -8 -31 57 -7 29 -28 90 -46 135
-19 45 -39 98 -44 118 -6 20 -21 44 -35 53 -13 9 -22 22 -19 29 6 18 -32 106
-59 136 -12 13 -47 36 -77 50 -30 15 -75 39 -100 53 -46 28 -155 58 -200 57
-14 -1 -40 -5 -59 -9z m402 -1040 c25 -20 25 -20 23 -168 -3 -128 -6 -153 -25
-189 -11 -23 -30 -47 -41 -53 -11 -6 -20 -17 -20 -25 0 -7 -5 -17 -11 -21 -8
-5 -9 6 -4 36 6 33 4 41 -5 35 -10 -6 -11 -2 -6 16 4 13 8 32 7 42 0 18 25 24
31 7 8 -25 31 13 36 60 4 41 1 57 -15 78 -99 135 -122 180 -101 194 26 16 104
9 131 -12z"/>
<path d="M1145 2364 c-60 -9 -75 -15 -90 -38 -20 -31 -10 -59 19 -50 11 4 23
10 26 14 7 9 43 24 54 21 5 -1 49 -4 97 -6 88 -4 89 -3 89 20 0 12 -8 26 -17
30 -21 9 -135 14 -178 9z"/>
<path d="M1237 2271 c-15 -9 -25 -21 -23 -28 3 -7 -4 -14 -15 -17 -10 -4 -29
-9 -40 -12 -14 -4 -19 -2 -15 5 11 17 -9 13 -35 -7 -39 -32 -20 -52 49 -52 39
0 64 -5 71 -14 9 -11 9 -15 -1 -19 -7 -3 4 -6 25 -6 24 -1 44 6 57 19 11 11
25 20 31 20 6 0 9 6 6 14 -3 8 -1 16 6 19 8 2 6 15 -8 41 -11 21 -22 39 -25
40 -22 12 -59 11 -83 -3z"/>
<path d="M1280 868 c-78 -75 -107 -108 -90 -104 55 16 80 29 85 47 7 20 20 25
30 10 10 -18 9 -235 -2 -291 -6 -30 -14 -122 -17 -204 -6 -141 -5 -148 11
-135 16 12 17 12 6 -1 -6 -8 -13 -54 -15 -103 l-3 -87 184 0 184 0 -7 148 c-9
187 -21 285 -47 394 l-21 87 22 73 22 72 -87 85 c-72 71 -88 83 -96 69 -7 -13
-13 -14 -34 -5 -27 13 -33 33 -12 40 6 2 10 7 7 9 -3 3 -57 -44 -120 -104z"/>
<path d="M2640 728 c0 -13 -9 -151 -20 -308 -24 -347 -25 -420 -6 -420 8 0 16
17 20 46 9 66 20 704 13 704 -4 0 -7 -10 -7 -22z"/>
<path d="M2531 328 c0 -10 -8 -18 -16 -18 -8 0 -15 -7 -15 -17 0 -29 -33 -122
-42 -117 -4 3 -8 -3 -8 -13 0 -11 -7 -28 -15 -39 -8 -10 -15 -38 -15 -61 0
-43 -19 -72 -21 -31 0 22 -1 22 -9 3 -14 -33 -12 -35 50 -35 34 0 60 4 60 10
0 6 9 76 21 156 11 81 18 154 16 163 -4 14 -5 14 -6 -1z"/>
</g>
</svg>
